<?xml version="1.0"?>
<svg xmlns="http://www.w3.org/2000/svg" viewBox="0 0 64 64">
    <path d="M 21.65625 4 C 20.32025 4 19.064094 4.5208438 18.121094 5.4648438 L 9.4648438 14.121094 C 8.5198437 15.065094 8 16.32025 8 17.65625 L 8 57 C 8 58.654 9.346 60 11 60 L 51 60 C 52.654 60 54 58.654 54 57 L 54 7 C 54 5.346 52.654 4 51 4 L 21.65625 4 z M 22 6 L 51 6 C 51.551 6 52 6.448 52 7 L 52 57 C 52 57.552 51.551 58 51 58 L 11 58 C 10.449 58 10 57.552 10 57 L 10 18 L 19 18 C 20.654 18 22 16.654 22 15 L 22 6 z M 20 6.4980469 L 20 15 C 20 15.552 19.551 16 19 16 L 10.498047 16 C 10.608047 15.835 10.735906 15.679156 10.878906 15.535156 L 19.535156 6.8789062 C 19.678156 6.7349062 19.835 6.6080469 20 6.4980469 z M 42.783203 18.023438 L 24.783203 22.023438 C 24.326203 22.126438 24 22.531 24 23 L 24 37 C 20.691 37 18 39.243 18 42 C 18 44.757 20.691 47 24 47 C 27.309 47 30 44.757 30 42 L 30 29.912109 L 38 28.136719 L 38 33 C 34.691 33 32 35.243 32 38 C 32 40.757 34.691 43 38 43 C 41.309 43 44 40.757 44 38 L 44 19 C 44 18.696 43.862 18.410703 43.625 18.220703 C 43.39 18.030703 43.080203 17.959437 42.783203 18.023438 z M 42 20.246094 L 42 38 C 42 39.654 40.206 41 38 41 C 35.794 41 34 39.654 34 38 C 34 36.346 35.794 35 38 35 C 38.28 35 38.562844 35.022359 38.839844 35.068359 C 39.128844 35.116359 39.423438 35.032797 39.648438 34.841797 C 39.871438 34.652797 40 34.373078 40 34.080078 L 40 26.888672 C 40 26.584672 39.862 26.299375 39.625 26.109375 C 39.39 25.920375 39.079203 25.847109 38.783203 25.912109 L 28.783203 28.136719 C 28.326203 28.237719 28 28.643328 28 29.111328 L 28 42 C 28 43.654 26.206 45 24 45 C 21.794 45 20 43.654 20 42 C 20 40.346 21.794 39 24 39 C 24.28 39 24.562844 39.022359 24.839844 39.068359 C 25.127844 39.115359 25.424437 39.032797 25.648438 38.841797 C 25.871437 38.652797 26 38.373078 26 38.080078 L 26 23.802734 L 42 20.246094 z M 13 52 C 12.448 52 12 52.447 12 53 L 12 55 C 12 55.553 12.448 56 13 56 C 13.552 56 14 55.553 14 55 L 14 53 C 14 52.447 13.552 52 13 52 z M 18 52 C 17.448 52 17 52.447 17 53 L 17 55 C 17 55.553 17.448 56 18 56 C 18.552 56 19 55.553 19 55 L 19 53 C 19 52.447 18.552 52 18 52 z M 23 52 C 22.448 52 22 52.447 22 53 L 22 55 C 22 55.553 22.448 56 23 56 C 23.552 56 24 55.553 24 55 L 24 53 C 24 52.447 23.552 52 23 52 z M 28 52 C 27.448 52 27 52.447 27 53 L 27 55 C 27 55.553 27.448 56 28 56 C 28.552 56 29 55.553 29 55 L 29 53 C 29 52.447 28.552 52 28 52 z M 33 52 C 32.448 52 32 52.447 32 53 L 32 55 C 32 55.553 32.448 56 33 56 C 33.552 56 34 55.553 34 55 L 34 53 C 34 52.447 33.552 52 33 52 z M 38 52 C 37.448 52 37 52.447 37 53 L 37 55 C 37 55.553 37.448 56 38 56 C 38.552 56 39 55.553 39 55 L 39 53 C 39 52.447 38.552 52 38 52 z M 43 52 C 42.448 52 42 52.447 42 53 L 42 55 C 42 55.553 42.448 56 43 56 C 43.552 56 44 55.553 44 55 L 44 53 C 44 52.447 43.552 52 43 52 z M 48 52 C 47.448 52 47 52.447 47 53 L 47 55 C 47 55.553 47.448 56 48 56 C 48.552 56 49 55.553 49 55 L 49 53 C 49 52.447 48.552 52 48 52 z"/>
</svg>
