<?xml version="1.0"?>
<svg xmlns="http://www.w3.org/2000/svg" viewBox="0 0 64 64">
    <path d="M 23.65625 4 C 22.32025 4 21.064094 4.5208438 20.121094 5.4648438 L 11.464844 14.121094 C 10.519844 15.065094 10 16.32025 10 17.65625 L 10 57 C 10 58.654 11.346 60 13 60 L 53 60 C 54.654 60 56 58.654 56 57 L 56 7 C 56 5.346 54.654 4 53 4 L 23.65625 4 z M 24 6 L 53 6 C 53.551 6 54 6.448 54 7 L 54 57 C 54 57.552 53.551 58 53 58 L 13 58 C 12.449 58 12 57.552 12 57 L 12 18 L 21 18 C 22.654 18 24 16.654 24 15 L 24 6 z M 22 6.4980469 L 22 15 C 22 15.552 21.551 16 21 16 L 12.501953 16 C 12.611953 15.834 12.737906 15.677156 12.878906 15.535156 L 21.535156 6.8789062 C 21.678156 6.7349062 21.835 6.6080469 22 6.4980469 z M 28.023438 21.818359 C 27.671688 21.807734 27.315594 21.888953 26.996094 22.064453 C 26.357094 22.416453 25.962891 23.087406 25.962891 23.816406 L 25.962891 42.181641 C 25.962891 42.910641 26.357094 43.581594 26.996094 43.933594 C 27.297094 44.099594 27.630891 44.183594 27.962891 44.183594 C 28.334891 44.183594 28.70525 44.078094 29.03125 43.871094 L 43.53125 34.6875 C 44.11425 34.3195 44.462891 33.687047 44.462891 32.998047 C 44.462891 32.309047 44.115203 31.678547 43.533203 31.310547 L 29.03125 22.126953 C 28.72375 21.932953 28.375187 21.828984 28.023438 21.818359 z M 27.962891 23.816406 L 42.462891 33 L 27.962891 42.1875 L 27.962891 23.816406 z M 15 52 C 14.448 52 14 52.448 14 53 L 14 55 C 14 55.552 14.448 56 15 56 C 15.552 56 16 55.552 16 55 L 16 53 C 16 52.448 15.552 52 15 52 z M 20 52 C 19.448 52 19 52.448 19 53 L 19 55 C 19 55.552 19.448 56 20 56 C 20.552 56 21 55.552 21 55 L 21 53 C 21 52.448 20.552 52 20 52 z M 25 52 C 24.448 52 24 52.448 24 53 L 24 55 C 24 55.552 24.448 56 25 56 C 25.552 56 26 55.552 26 55 L 26 53 C 26 52.448 25.552 52 25 52 z M 30 52 C 29.448 52 29 52.448 29 53 L 29 55 C 29 55.552 29.448 56 30 56 C 30.552 56 31 55.552 31 55 L 31 53 C 31 52.448 30.552 52 30 52 z M 35 52 C 34.448 52 34 52.448 34 53 L 34 55 C 34 55.552 34.448 56 35 56 C 35.552 56 36 55.552 36 55 L 36 53 C 36 52.448 35.552 52 35 52 z M 40 52 C 39.448 52 39 52.448 39 53 L 39 55 C 39 55.552 39.448 56 40 56 C 40.552 56 41 55.552 41 55 L 41 53 C 41 52.448 40.552 52 40 52 z M 45 52 C 44.448 52 44 52.448 44 53 L 44 55 C 44 55.552 44.448 56 45 56 C 45.552 56 46 55.552 46 55 L 46 53 C 46 52.448 45.552 52 45 52 z M 50 52 C 49.448 52 49 52.448 49 53 L 49 55 C 49 55.552 49.448 56 50 56 C 50.552 56 51 55.552 51 55 L 51 53 C 51 52.448 50.552 52 50 52 z"/>
</svg>
